# xmcd
#
# Track frame offsets: 
#        150
#        23930
#        42323
#        56194
#        78000
#        96275
#        131985
#        149520
#        163562
#        184198
#        201291
#        222316
#        251620
#        270633
#        288288
#        314120
#        335234
#
# Disc length: 4804 seconds
#
# Revision: 0
# Processed by: cddbd v1.5.2PL0 Copyright (c) Steve Scherf et al.
# Submitted via: ExactAudioCopy v1.3
#
DISCID=1312c211
DTITLE=Various Artist - Akella Presents - vol. 141 - Black Pure Blues
DTITLE=CD2
DYEAR=2018
DGENRE=Blues
TTITLE0=Mem Shannon - No Religion
TTITLE1=Buddy Guy - I Miss You
TTITLE2=Chris Cane - My Baby Wants To Leave Me
TTITLE3=Kenny 'Blues Boss' Wayne - Devil Woman
TTITLE4=Lazy Lester - I Need Money
TTITLE5=Big Jack Johnson - Black Rooster
TTITLE6=Clarence 'Gatemouth' Brown - Solid Gold Plated Fool
TTITLE7=Curly Barefoot Miller - Outskirts Of Town
TTITLE8=Big Bill Morganfield - I Am The Blues
TTITLE9=Alabama Mike - Somewhere Down The Line
TTITLE10=Bob Kirkpatrick - Little Girl
TTITLE11=Bobby Dean Blackburn - Twilight Time
TTITLE12=Lurrie Bell - I Need You So Bad
TTITLE13=Joe Jonas - Mojo Backfired
TTITLE14=Mel Brown - I Believe To My Soul
TTITLE15=The Crudup Brothers - Mean Old Frisco Blues
TTITLE16=Sam Lay Blues Band - Poison Ivy
EXTD=
EXTT0=
EXTT1=
EXTT2=
EXTT3=
EXTT4=
EXTT5=
EXTT6=
EXTT7=
EXTT8=
EXTT9=
EXTT10=
EXTT11=
EXTT12=
EXTT13=
EXTT14=
EXTT15=
EXTT16=
PLAYORDER=
